<svg width="98" height="98" viewBox="0 0 98 98" fill="none" xmlns="http://www.w3.org/2000/svg">
<path d="M0 49C0 21.938 21.938 0 49 0C76.062 0 98 21.938 98 49C98 76.062 76.062 98 49 98C21.938 98 0 76.062 0 49Z" fill="white"/>
<mask id="mask0" mask-type="alpha" maskUnits="userSpaceOnUse" x="4" y="4" width="90" height="90">
<path d="M4 49C4 24.1472 24.1472 4 49 4C73.8528 4 94 24.1472 94 49C94 73.8528 73.8528 94 49 94C24.1472 94 4 73.8528 4 49Z" fill="url(#paint0_linear)"/>
</mask>
<g mask="url(#mask0)">
<path d="M0 49C0 21.938 21.938 0 49 0C76.062 0 98 21.938 98 49C98 76.062 76.062 98 49 98C21.938 98 0 76.062 0 49Z" fill="white"/>
<path d="M4 49C4 24.1472 24.1472 4 49 4C73.8528 4 94 24.1472 94 49C94 73.8528 73.8528 94 49 94C24.1472 94 4 73.8528 4 49Z" fill="url(#paint1_linear)"/>
<path d="M29 18L30 17L31 18L30 19L29 18Z" fill="#67618B"/>
<path d="M11 30L12 29L13 30L12 31L11 30Z" fill="#67618B"/>
<path d="M24 41L25 40L26 41L25 42L24 41Z" fill="#67618B"/>
<path d="M18 55L19 54L20 55L19 56L18 55Z" fill="#67618B"/>
<path d="M30 71L31 70L32 71L31 72L30 71Z" fill="#67618B"/>
<path d="M83 75L84 74L85 75L84 76L83 75Z" fill="#67618B"/>
<path d="M73 70L74 69L75 70L74 71L73 70Z" fill="#67618B"/>
<path d="M83 57L84 56L85 57L84 58L83 57Z" fill="#67618B"/>
<path d="M64 46L65 45L66 46L65 47L64 46Z" fill="#67618B"/>
<path d="M64 12L65 11L66 12L65 13L64 12Z" fill="#67618B"/>
<path d="M50 23L51 22L52 23L51 24L50 23Z" fill="#67618B"/>
<path d="M29 18L30 17L31 18L30 19L29 18Z" stroke="#66618B"/>
<path d="M11 30L12 29L13 30L12 31L11 30Z" stroke="#66618B"/>
<path d="M24 41L25 40L26 41L25 42L24 41Z" stroke="#66618B"/>
<path d="M18 55L19 54L20 55L19 56L18 55Z" stroke="#66618B"/>
<path d="M30 71L31 70L32 71L31 72L30 71Z" stroke="#66618B"/>
<path d="M83 75L84 74L85 75L84 76L83 75Z" stroke="#66618B"/>
<path d="M73 70L74 69L75 70L74 71L73 70Z" stroke="#66618B"/>
<path d="M83 57L84 56L85 57L84 58L83 57Z" stroke="#66618B"/>
<path d="M64 46L65 45L66 46L65 47L64 46Z" stroke="#66618B"/>
<path d="M64 12L65 11L66 12L65 13L64 12Z" stroke="#66618B"/>
<path d="M50 23L51 22L52 23L51 24L50 23Z" stroke="#66618B"/>
<path d="M67.221 52.2963C66.8731 52.2093 66.5253 52.2963 66.2209 52.5137C65.0903 53.4703 63.7858 54.253 62.3509 54.7748C61.0029 55.2966 59.5245 55.5575 57.9591 55.5575C54.437 55.5575 51.2193 54.1226 48.9147 51.818C46.6101 49.5134 45.1751 46.2956 45.1751 42.7735C45.1751 41.2951 45.436 39.8602 45.8708 38.5557C46.3492 37.1642 47.0449 35.9032 47.958 34.8161C48.3494 34.3378 48.2624 33.6421 47.7841 33.2507C47.4797 33.0333 47.1319 32.9464 46.784 33.0333C43.0879 34.0334 39.8702 36.2511 37.5656 39.2079C35.348 42.1213 34 45.7304 34 49.6873C34 54.4269 35.9133 58.7318 39.044 61.8625C42.1748 64.9933 46.4796 66.9066 51.2193 66.9066C55.2197 66.9066 58.9157 65.5151 61.8726 63.2105C64.8729 60.8624 67.0471 57.5142 67.9602 53.6877C68.1776 53.0355 67.8297 52.4267 67.221 52.2963ZM60.5681 61.3842C58.0461 63.3844 54.8283 64.602 51.3062 64.602C47.1753 64.602 43.4358 62.9061 40.7399 60.2102C38.0439 57.5142 36.3481 53.7747 36.3481 49.6438C36.3481 46.2087 37.4786 43.0779 39.4354 40.5559C40.7833 38.8166 42.4792 37.3816 44.4359 36.3815C44.2185 36.8598 44.0011 37.3381 43.8272 37.8599C43.2619 39.4253 43.001 41.0777 43.001 42.817C43.001 46.9479 44.6968 50.7309 47.3928 53.4268C50.0887 56.1228 53.8717 57.8186 58.0026 57.8186C59.8289 57.8186 61.5682 57.5142 63.1771 56.9055C63.7423 56.6881 64.3076 56.4706 64.8294 56.2097C63.7858 58.21 62.3509 59.9928 60.5681 61.3842Z" fill="white"/>
<g opacity="0.4">
<ellipse cx="58.5" cy="87" rx="14.5" ry="9" fill="#66618B"/>
<ellipse cx="43.5" cy="93" rx="14.5" ry="9" fill="#66618B"/>
<circle cx="84" cy="27" r="14" fill="#66618B"/>
</g>
</g>
<defs>
<linearGradient id="paint0_linear" x1="49" y1="4" x2="49" y2="94" gradientUnits="userSpaceOnUse">
<stop stop-color="#393169"/>
<stop offset="1" stop-color="#20334E"/>
</linearGradient>
<linearGradient id="paint1_linear" x1="49" y1="4" x2="49" y2="94" gradientUnits="userSpaceOnUse">
<stop stop-color="#393169"/>
<stop offset="1" stop-color="#20334E"/>
</linearGradient>
</defs>
</svg>
