<svg width="98" height="98" viewBox="0 0 98 98" fill="none" xmlns="http://www.w3.org/2000/svg">
<path d="M0 49C0 21.938 21.938 0 49 0C76.062 0 98 21.938 98 49C98 76.062 76.062 98 49 98C21.938 98 0 76.062 0 49Z" fill="white"/>
<path d="M0 49C0 21.938 21.938 0 49 0C76.062 0 98 21.938 98 49C98 76.062 76.062 98 49 98C21.938 98 0 76.062 0 49Z" fill="white"/>
<path d="M4 49C4 24.1472 24.1472 4 49 4C73.8528 4 94 24.1472 94 49C94 73.8528 73.8528 94 49 94C24.1472 94 4 73.8528 4 49Z" fill="url(#paint0_linear)"/>
<path d="M4 49C4 24.1472 24.1472 4 49 4C73.8528 4 94 24.1472 94 49C94 73.8528 73.8528 94 49 94C24.1472 94 4 73.8528 4 49Z" fill="url(#paint1_linear)"/>
<path d="M35 49C35 41.268 41.268 35 49 35C56.732 35 63 41.268 63 49C63 56.732 56.732 63 49 63C41.268 63 35 56.732 35 49ZM32.9142 33.0858L26.9142 27.0858C26.8668 27.0384 26.8668 26.9616 26.9142 26.9142C26.9616 26.8668 27.0384 26.8668 27.0858 26.9142L33.0858 32.9142C33.1332 32.9616 33.1332 33.0384 33.0858 33.0858C33.0384 33.1332 32.9616 33.1332 32.9142 33.0858ZM71.0858 27.0858L65.0858 33.0858C65.0384 33.1332 64.9616 33.1332 64.9142 33.0858C64.8668 33.0384 64.8668 32.9616 64.9142 32.9142L70.9142 26.9142C70.9616 26.8668 71.0384 26.8668 71.0858 26.9142C71.1332 26.9616 71.1332 27.0384 71.0858 27.0858ZM70.9142 71.0858L64.9142 65.0858C64.8668 65.0384 64.8668 64.9616 64.9142 64.9142C64.9616 64.8668 65.0384 64.8668 65.0858 64.9142L71.0858 70.9142C71.1332 70.9616 71.1332 71.0384 71.0858 71.0858C71.0384 71.1332 70.9616 71.1332 70.9142 71.0858ZM33.0858 65.0858L27.0858 71.0858C27.0384 71.1332 26.9616 71.1332 26.9142 71.0858C26.8668 71.0384 26.8668 70.9616 26.9142 70.9142L32.9142 64.9142C32.9616 64.8668 33.0384 64.8668 33.0858 64.9142C33.1332 64.9616 33.1332 65.0384 33.0858 65.0858Z" stroke="#FEFEFE" stroke-width="4"/>
<defs>
<linearGradient id="paint0_linear" x1="49" y1="4" x2="49" y2="94" gradientUnits="userSpaceOnUse">
<stop stop-color="#FF8A0A"/>
<stop offset="1" stop-color="#FFB721"/>
</linearGradient>
<linearGradient id="paint1_linear" x1="49" y1="4" x2="49" y2="94" gradientUnits="userSpaceOnUse">
<stop stop-color="#FF8A0A"/>
<stop offset="1" stop-color="#FFB721"/>
</linearGradient>
</defs>
</svg>
